<?xml version="1.0" encoding="us-ascii" standalone="no"?><svg xmlns="http://www.w3.org/2000/svg" xmlns:xlink="http://www.w3.org/1999/xlink" contentStyleType="text/css" height="755px" preserveAspectRatio="none" style="width:1516px;height:755px;background:#FFFFFF;" version="1.1" viewBox="0 0 1516 755" width="1516px" zoomAndPan="magnify"><defs/><g><!--cluster banka--><g id="cluster_banka"><rect fill="none" height="742" rx="2.5" ry="2.5" style="stroke:#000000;stroke-width:1.5;" width="1503" x="7" y="7"/><text fill="#000000" font-family="sans-serif" font-size="14" font-weight="bold" lengthAdjust="spacing" textLength="42" x="737.5" y="23.5332">banka</text></g><!--cluster hesap--><g id="cluster_hesap"><rect fill="none" height="462" rx="2.5" ry="2.5" style="stroke:#000000;stroke-width:1.5;" width="318" x="1168" y="168"/><text fill="#000000" font-family="sans-serif" font-size="14" font-weight="bold" lengthAdjust="spacing" textLength="43" x="1305.5" y="184.5332">hesap</text></g><!--cluster islem--><g id="cluster_islem"><rect fill="none" height="289" rx="2.5" ry="2.5" style="stroke:#000000;stroke-width:1.5;" width="1113" x="31" y="436"/><text fill="#000000" font-family="sans-serif" font-size="14" font-weight="bold" lengthAdjust="spacing" textLength="37" x="569" y="452.5332">islem</text></g><!--cluster model--><g id="cluster_model"><rect fill="none" height="84" rx="2.5" ry="2.5" style="stroke:#000000;stroke-width:1.5;" width="110" x="938" y="302"/><text fill="#000000" font-family="sans-serif" font-size="14" font-weight="bold" lengthAdjust="spacing" textLength="43" x="971.5" y="318.5332">model</text></g><!--cluster service--><g id="cluster_service"><rect fill="none" height="84" rx="2.5" ry="2.5" style="stroke:#000000;stroke-width:1.5;" width="104" x="765" y="168"/><text fill="#000000" font-family="sans-serif" font-size="14" font-weight="bold" lengthAdjust="spacing" textLength="53" x="790.5" y="184.5332">service</text></g><!--cluster ui--><g id="cluster_ui"><rect fill="none" height="84" rx="2.5" ry="2.5" style="stroke:#000000;stroke-width:1.5;" width="279" x="569" y="51"/><text fill="#000000" font-family="sans-serif" font-size="14" font-weight="bold" lengthAdjust="spacing" textLength="13" x="702" y="67.5332">ui</text></g><!--cluster util--><g id="cluster_util"><rect fill="none" height="84" rx="2.5" ry="2.5" style="stroke:#000000;stroke-width:1.5;" width="244" x="524" y="302"/><text fill="#000000" font-family="sans-serif" font-size="14" font-weight="bold" lengthAdjust="spacing" textLength="22" x="635" y="318.5332">util</text></g><!--cluster test--><g id="cluster_test"><rect fill="none" height="84" rx="2.5" ry="2.5" style="stroke:#000000;stroke-width:1.5;" width="132" x="872" y="51"/><text fill="#000000" font-family="sans-serif" font-size="14" font-weight="bold" lengthAdjust="spacing" textLength="27" x="924.5" y="67.5332">test</text></g><!--class Hesap--><g id="elem_Hesap"><rect codeLine="15" fill="#F1F1F1" height="32" id="Hesap" rx="2.5" ry="2.5" style="stroke:#181818;stroke-width:0.5;" width="73" x="1365.5" y="338"/><ellipse cx="1380.5" cy="354" fill="#A9DCDF" rx="11" ry="11" style="stroke:#181818;stroke-width:1.0;"/><path d="M1382.6875,355.7656 L1378.5469,355.7656 L1378.125,356.7969 L1378.5469,356.7969 Q1379.1563,356.7969 1379.4219,357.0313 Q1379.6875,357.2656 1379.6875,357.6563 Q1379.6875,358.0313 1379.4219,358.2656 Q1379.1563,358.5 1378.5469,358.5 L1376.25,358.5 Q1375.6406,358.5 1375.3906,358.2656 Q1375.125,358.0313 1375.125,357.6406 Q1375.125,357.2656 1375.4063,357.0313 Q1375.6719,356.7813 1376.2969,356.7969 L1378.9688,350.1406 L1377.8594,350.1406 Q1377.25,350.1406 1376.9844,349.9063 Q1376.7188,349.6719 1376.7188,349.2813 Q1376.7188,348.9063 1376.9844,348.6719 Q1377.25,348.4375 1377.8594,348.4375 L1381.5313,348.4375 L1384.9219,356.7969 Q1385.5156,356.7969 1385.7031,356.9375 Q1386.0938,357.2031 1386.0938,357.6563 Q1386.0938,358.0313 1385.8281,358.2656 Q1385.5781,358.5 1384.9688,358.5 L1382.6719,358.5 Q1382.0625,358.5 1381.7969,358.2656 Q1381.5313,358.0313 1381.5313,357.6406 Q1381.5313,357.2656 1381.7969,357.0313 Q1382.0625,356.7969 1382.6719,356.7969 L1383.0938,356.7969 L1382.6875,355.7656 Z M1381.9688,354.0625 L1380.6094,350.6875 L1379.2344,354.0625 L1381.9688,354.0625 Z " fill="#000000"/><text fill="#000000" font-family="sans-serif" font-size="14" font-style="italic" lengthAdjust="spacing" textLength="41" x="1394.5" y="359.7285">Hesap</text></g><!--class VadesizHesap--><g id="elem_VadesizHesap"><rect codeLine="16" fill="#F1F1F1" height="32" id="VadesizHesap" rx="2.5" ry="2.5" style="stroke:#181818;stroke-width:0.5;" width="121" x="1184.5" y="472"/><ellipse cx="1199.5" cy="488" fill="#ADD1B2" rx="11" ry="11" style="stroke:#181818;stroke-width:1.0;"/><path d="M1202.2656,483.875 Q1202.4219,483.6563 1202.6094,483.5469 Q1202.7969,483.4375 1203.0156,483.4375 Q1203.3906,483.4375 1203.625,483.7031 Q1203.8594,483.9531 1203.8594,484.5625 L1203.8594,486.0156 Q1203.8594,486.625 1203.625,486.8906 Q1203.3906,487.1563 1203.0156,487.1563 Q1202.6719,487.1563 1202.4688,486.9531 Q1202.2656,486.7656 1202.1563,486.25 Q1202.1094,485.8906 1201.9219,485.7031 Q1201.5938,485.3281 1200.9844,485.1094 Q1200.375,484.8906 1199.75,484.8906 Q1198.9844,484.8906 1198.3438,485.2188 Q1197.7188,485.5469 1197.2188,486.2969 Q1196.7344,487.0469 1196.7344,488.0781 L1196.7344,489.1719 Q1196.7344,490.4063 1197.625,491.2344 Q1198.5156,492.0469 1200.1094,492.0469 Q1201.0469,492.0469 1201.7031,491.7969 Q1202.0938,491.6406 1202.5156,491.2031 Q1202.7813,490.9375 1202.9219,490.8594 Q1203.0781,490.7813 1203.2813,490.7813 Q1203.6094,490.7813 1203.8594,491.0469 Q1204.125,491.2969 1204.125,491.6406 Q1204.125,491.9844 1203.7813,492.3906 Q1203.2813,492.9688 1202.4844,493.2969 Q1201.4063,493.75 1200.1094,493.75 Q1198.5938,493.75 1197.3906,493.125 Q1196.4063,492.625 1195.7188,491.5625 Q1195.0313,490.4844 1195.0313,489.2031 L1195.0313,488.0469 Q1195.0313,486.7188 1195.6406,485.5781 Q1196.2656,484.4219 1197.3594,483.8125 Q1198.4531,483.1875 1199.6875,483.1875 Q1200.4219,483.1875 1201.0625,483.3594 Q1201.7188,483.5156 1202.2656,483.875 Z " fill="#000000"/><text fill="#000000" font-family="sans-serif" font-size="14" lengthAdjust="spacing" textLength="89" x="1213.5" y="493.7285">VadesizHesap</text></g><!--class TasarrufHesabi--><g id="elem_TasarrufHesabi"><rect codeLine="17" fill="#F1F1F1" height="32" id="TasarrufHesabi" rx="2.5" ry="2.5" style="stroke:#181818;stroke-width:0.5;" width="129" x="1340.5" y="472"/><ellipse cx="1355.5" cy="488" fill="#ADD1B2" rx="11" ry="11" style="stroke:#181818;stroke-width:1.0;"/><path d="M1358.2656,483.875 Q1358.4219,483.6563 1358.6094,483.5469 Q1358.7969,483.4375 1359.0156,483.4375 Q1359.3906,483.4375 1359.625,483.7031 Q1359.8594,483.9531 1359.8594,484.5625 L1359.8594,486.0156 Q1359.8594,486.625 1359.625,486.8906 Q1359.3906,487.1563 1359.0156,487.1563 Q1358.6719,487.1563 1358.4688,486.9531 Q1358.2656,486.7656 1358.1563,486.25 Q1358.1094,485.8906 1357.9219,485.7031 Q1357.5938,485.3281 1356.9844,485.1094 Q1356.375,484.8906 1355.75,484.8906 Q1354.9844,484.8906 1354.3438,485.2188 Q1353.7188,485.5469 1353.2188,486.2969 Q1352.7344,487.0469 1352.7344,488.0781 L1352.7344,489.1719 Q1352.7344,490.4063 1353.625,491.2344 Q1354.5156,492.0469 1356.1094,492.0469 Q1357.0469,492.0469 1357.7031,491.7969 Q1358.0938,491.6406 1358.5156,491.2031 Q1358.7813,490.9375 1358.9219,490.8594 Q1359.0781,490.7813 1359.2813,490.7813 Q1359.6094,490.7813 1359.8594,491.0469 Q1360.125,491.2969 1360.125,491.6406 Q1360.125,491.9844 1359.7813,492.3906 Q1359.2813,492.9688 1358.4844,493.2969 Q1357.4063,493.75 1356.1094,493.75 Q1354.5938,493.75 1353.3906,493.125 Q1352.4063,492.625 1351.7188,491.5625 Q1351.0313,490.4844 1351.0313,489.2031 L1351.0313,488.0469 Q1351.0313,486.7188 1351.6406,485.5781 Q1352.2656,484.4219 1353.3594,483.8125 Q1354.4531,483.1875 1355.6875,483.1875 Q1356.4219,483.1875 1357.0625,483.3594 Q1357.7188,483.5156 1358.2656,483.875 Z " fill="#000000"/><text fill="#000000" font-family="sans-serif" font-size="14" lengthAdjust="spacing" textLength="97" x="1369.5" y="493.7285">TasarrufHesabi</text></g><!--class AltinCuzdani--><g id="elem_AltinCuzdani"><rect codeLine="18" fill="#F1F1F1" height="32" id="AltinCuzdani" rx="2.5" ry="2.5" style="stroke:#181818;stroke-width:0.5;" width="110" x="1345" y="582"/><ellipse cx="1360" cy="598" fill="#ADD1B2" rx="11" ry="11" style="stroke:#181818;stroke-width:1.0;"/><path d="M1362.7656,593.875 Q1362.9219,593.6563 1363.1094,593.5469 Q1363.2969,593.4375 1363.5156,593.4375 Q1363.8906,593.4375 1364.125,593.7031 Q1364.3594,593.9531 1364.3594,594.5625 L1364.3594,596.0156 Q1364.3594,596.625 1364.125,596.8906 Q1363.8906,597.1563 1363.5156,597.1563 Q1363.1719,597.1563 1362.9688,596.9531 Q1362.7656,596.7656 1362.6563,596.25 Q1362.6094,595.8906 1362.4219,595.7031 Q1362.0938,595.3281 1361.4844,595.1094 Q1360.875,594.8906 1360.25,594.8906 Q1359.4844,594.8906 1358.8438,595.2188 Q1358.2188,595.5469 1357.7188,596.2969 Q1357.2344,597.0469 1357.2344,598.0781 L1357.2344,599.1719 Q1357.2344,600.4063 1358.125,601.2344 Q1359.0156,602.0469 1360.6094,602.0469 Q1361.5469,602.0469 1362.2031,601.7969 Q1362.5938,601.6406 1363.0156,601.2031 Q1363.2813,600.9375 1363.4219,600.8594 Q1363.5781,600.7813 1363.7813,600.7813 Q1364.1094,600.7813 1364.3594,601.0469 Q1364.625,601.2969 1364.625,601.6406 Q1364.625,601.9844 1364.2813,602.3906 Q1363.7813,602.9688 1362.9844,603.2969 Q1361.9063,603.75 1360.6094,603.75 Q1359.0938,603.75 1357.8906,603.125 Q1356.9063,602.625 1356.2188,601.5625 Q1355.5313,600.4844 1355.5313,599.2031 L1355.5313,598.0469 Q1355.5313,596.7188 1356.1406,595.5781 Q1356.7656,594.4219 1357.8594,593.8125 Q1358.9531,593.1875 1360.1875,593.1875 Q1360.9219,593.1875 1361.5625,593.3594 Q1362.2188,593.5156 1362.7656,593.875 Z " fill="#000000"/><text fill="#000000" font-family="sans-serif" font-size="14" lengthAdjust="spacing" textLength="78" x="1374" y="603.7285">AltinCuzdani</text></g><!--class IHesapIslemleri--><g id="elem_IHesapIslemleri"><rect codeLine="19" fill="#F1F1F1" height="32" id="IHesapIslemleri" rx="2.5" ry="2.5" style="stroke:#181818;stroke-width:0.5;" width="129" x="1337.5" y="204"/><ellipse cx="1352.5" cy="220" fill="#B4A7E5" rx="11" ry="11" style="stroke:#181818;stroke-width:1.0;"/><path d="M1353.4531,216.6406 L1353.4531,223.2969 L1355.1719,223.2969 Q1355.7813,223.2969 1356.0469,223.5313 Q1356.3125,223.7656 1356.3125,224.1563 Q1356.3125,224.5313 1356.0469,224.7656 Q1355.7813,225 1355.1719,225 L1350.0313,225 Q1349.4219,225 1349.1563,224.7656 Q1348.8906,224.5313 1348.8906,224.1406 Q1348.8906,223.7656 1349.1563,223.5313 Q1349.4219,223.2969 1350.0313,223.2969 L1351.75,223.2969 L1351.75,216.6406 L1350.0313,216.6406 Q1349.4219,216.6406 1349.1563,216.4063 Q1348.8906,216.1719 1348.8906,215.7813 Q1348.8906,215.4063 1349.1563,215.1719 Q1349.4219,214.9375 1350.0313,214.9375 L1355.1719,214.9375 Q1355.7813,214.9375 1356.0469,215.1719 Q1356.3125,215.4063 1356.3125,215.7813 Q1356.3125,216.1719 1356.0469,216.4063 Q1355.7813,216.6406 1355.1719,216.6406 L1353.4531,216.6406 Z " fill="#000000"/><text fill="#000000" font-family="sans-serif" font-size="14" font-style="italic" lengthAdjust="spacing" textLength="97" x="1366.5" y="225.7285">IHesapIslemleri</text></g><!--class TransferEdilebilir--><g id="elem_TransferEdilebilir"><rect codeLine="20" fill="#F1F1F1" height="32" id="TransferEdilebilir" rx="2.5" ry="2.5" style="stroke:#181818;stroke-width:0.5;" width="139" x="1189.5" y="338"/><ellipse cx="1204.5" cy="354" fill="#B4A7E5" rx="11" ry="11" style="stroke:#181818;stroke-width:1.0;"/><path d="M1205.4531,350.6406 L1205.4531,357.2969 L1207.1719,357.2969 Q1207.7813,357.2969 1208.0469,357.5313 Q1208.3125,357.7656 1208.3125,358.1563 Q1208.3125,358.5313 1208.0469,358.7656 Q1207.7813,359 1207.1719,359 L1202.0313,359 Q1201.4219,359 1201.1563,358.7656 Q1200.8906,358.5313 1200.8906,358.1406 Q1200.8906,357.7656 1201.1563,357.5313 Q1201.4219,357.2969 1202.0313,357.2969 L1203.75,357.2969 L1203.75,350.6406 L1202.0313,350.6406 Q1201.4219,350.6406 1201.1563,350.4063 Q1200.8906,350.1719 1200.8906,349.7813 Q1200.8906,349.4063 1201.1563,349.1719 Q1201.4219,348.9375 1202.0313,348.9375 L1207.1719,348.9375 Q1207.7813,348.9375 1208.0469,349.1719 Q1208.3125,349.4063 1208.3125,349.7813 Q1208.3125,350.1719 1208.0469,350.4063 Q1207.7813,350.6406 1207.1719,350.6406 L1205.4531,350.6406 Z " fill="#000000"/><text fill="#000000" font-family="sans-serif" font-size="14" font-style="italic" lengthAdjust="spacing" textLength="107" x="1218.5" y="359.7285">TransferEdilebilir</text></g><!--class Islem--><g id="elem_Islem"><rect codeLine="24" fill="#F1F1F1" height="32" id="Islem" rx="2.5" ry="2.5" style="stroke:#181818;stroke-width:0.5;" width="65" x="644.5" y="582"/><ellipse cx="659.5" cy="598" fill="#B4A7E5" rx="11" ry="11" style="stroke:#181818;stroke-width:1.0;"/><path d="M660.4531,594.6406 L660.4531,601.2969 L662.1719,601.2969 Q662.7813,601.2969 663.0469,601.5313 Q663.3125,601.7656 663.3125,602.1563 Q663.3125,602.5313 663.0469,602.7656 Q662.7813,603 662.1719,603 L657.0313,603 Q656.4219,603 656.1563,602.7656 Q655.8906,602.5313 655.8906,602.1406 Q655.8906,601.7656 656.1563,601.5313 Q656.4219,601.2969 657.0313,601.2969 L658.75,601.2969 L658.75,594.6406 L657.0313,594.6406 Q656.4219,594.6406 656.1563,594.4063 Q655.8906,594.1719 655.8906,593.7813 Q655.8906,593.4063 656.1563,593.1719 Q656.4219,592.9375 657.0313,592.9375 L662.1719,592.9375 Q662.7813,592.9375 663.0469,593.1719 Q663.3125,593.4063 663.3125,593.7813 Q663.3125,594.1719 663.0469,594.4063 Q662.7813,594.6406 662.1719,594.6406 L660.4531,594.6406 Z " fill="#000000"/><text fill="#000000" font-family="sans-serif" font-size="14" font-style="italic" lengthAdjust="spacing" textLength="33" x="673.5" y="603.7285">Islem</text></g><!--class IslemGecmisi--><g id="elem_IslemGecmisi"><rect codeLine="25" fill="#F1F1F1" height="32" id="IslemGecmisi" rx="2.5" ry="2.5" style="stroke:#181818;stroke-width:0.5;" width="114" x="786" y="472"/><ellipse cx="801" cy="488" fill="#ADD1B2" rx="11" ry="11" style="stroke:#181818;stroke-width:1.0;"/><path d="M803.7656,483.875 Q803.9219,483.6563 804.1094,483.5469 Q804.2969,483.4375 804.5156,483.4375 Q804.8906,483.4375 805.125,483.7031 Q805.3594,483.9531 805.3594,484.5625 L805.3594,486.0156 Q805.3594,486.625 805.125,486.8906 Q804.8906,487.1563 804.5156,487.1563 Q804.1719,487.1563 803.9688,486.9531 Q803.7656,486.7656 803.6563,486.25 Q803.6094,485.8906 803.4219,485.7031 Q803.0938,485.3281 802.4844,485.1094 Q801.875,484.8906 801.25,484.8906 Q800.4844,484.8906 799.8438,485.2188 Q799.2188,485.5469 798.7188,486.2969 Q798.2344,487.0469 798.2344,488.0781 L798.2344,489.1719 Q798.2344,490.4063 799.125,491.2344 Q800.0156,492.0469 801.6094,492.0469 Q802.5469,492.0469 803.2031,491.7969 Q803.5938,491.6406 804.0156,491.2031 Q804.2813,490.9375 804.4219,490.8594 Q804.5781,490.7813 804.7813,490.7813 Q805.1094,490.7813 805.3594,491.0469 Q805.625,491.2969 805.625,491.6406 Q805.625,491.9844 805.2813,492.3906 Q804.7813,492.9688 803.9844,493.2969 Q802.9063,493.75 801.6094,493.75 Q800.0938,493.75 798.8906,493.125 Q797.9063,492.625 797.2188,491.5625 Q796.5313,490.4844 796.5313,489.2031 L796.5313,488.0469 Q796.5313,486.7188 797.1406,485.5781 Q797.7656,484.4219 798.8594,483.8125 Q799.9531,483.1875 801.1875,483.1875 Q801.9219,483.1875 802.5625,483.3594 Q803.2188,483.5156 803.7656,483.875 Z " fill="#000000"/><text fill="#000000" font-family="sans-serif" font-size="14" lengthAdjust="spacing" textLength="82" x="815" y="493.7285">IslemGecmisi</text></g><!--class ParaYatirmaIslemi--><g id="elem_ParaYatirmaIslemi"><rect codeLine="26" fill="#F1F1F1" height="32" id="ParaYatirmaIslemi" rx="2.5" ry="2.5" style="stroke:#181818;stroke-width:0.5;" width="145" x="47.5" y="677"/><ellipse cx="62.5" cy="693" fill="#ADD1B2" rx="11" ry="11" style="stroke:#181818;stroke-width:1.0;"/><path d="M65.2656,688.875 Q65.4219,688.6563 65.6094,688.5469 Q65.7969,688.4375 66.0156,688.4375 Q66.3906,688.4375 66.625,688.7031 Q66.8594,688.9531 66.8594,689.5625 L66.8594,691.0156 Q66.8594,691.625 66.625,691.8906 Q66.3906,692.1563 66.0156,692.1563 Q65.6719,692.1563 65.4688,691.9531 Q65.2656,691.7656 65.1563,691.25 Q65.1094,690.8906 64.9219,690.7031 Q64.5938,690.3281 63.9844,690.1094 Q63.375,689.8906 62.75,689.8906 Q61.9844,689.8906 61.3438,690.2188 Q60.7188,690.5469 60.2188,691.2969 Q59.7344,692.0469 59.7344,693.0781 L59.7344,694.1719 Q59.7344,695.4063 60.625,696.2344 Q61.5156,697.0469 63.1094,697.0469 Q64.0469,697.0469 64.7031,696.7969 Q65.0938,696.6406 65.5156,696.2031 Q65.7813,695.9375 65.9219,695.8594 Q66.0781,695.7813 66.2813,695.7813 Q66.6094,695.7813 66.8594,696.0469 Q67.125,696.2969 67.125,696.6406 Q67.125,696.9844 66.7813,697.3906 Q66.2813,697.9688 65.4844,698.2969 Q64.4063,698.75 63.1094,698.75 Q61.5938,698.75 60.3906,698.125 Q59.4063,697.625 58.7188,696.5625 Q58.0313,695.4844 58.0313,694.2031 L58.0313,693.0469 Q58.0313,691.7188 58.6406,690.5781 Q59.2656,689.4219 60.3594,688.8125 Q61.4531,688.1875 62.6875,688.1875 Q63.4219,688.1875 64.0625,688.3594 Q64.7188,688.5156 65.2656,688.875 Z " fill="#000000"/><text fill="#000000" font-family="sans-serif" font-size="14" lengthAdjust="spacing" textLength="113" x="76.5" y="698.7285">ParaYatirmaIslemi</text></g><!--class ParaCekmeIslemi--><g id="elem_ParaCekmeIslemi"><rect codeLine="27" fill="#F1F1F1" height="32" id="ParaCekmeIslemi" rx="2.5" ry="2.5" style="stroke:#181818;stroke-width:0.5;" width="141" x="227.5" y="677"/><ellipse cx="242.5" cy="693" fill="#ADD1B2" rx="11" ry="11" style="stroke:#181818;stroke-width:1.0;"/><path d="M245.2656,688.875 Q245.4219,688.6563 245.6094,688.5469 Q245.7969,688.4375 246.0156,688.4375 Q246.3906,688.4375 246.625,688.7031 Q246.8594,688.9531 246.8594,689.5625 L246.8594,691.0156 Q246.8594,691.625 246.625,691.8906 Q246.3906,692.1563 246.0156,692.1563 Q245.6719,692.1563 245.4688,691.9531 Q245.2656,691.7656 245.1563,691.25 Q245.1094,690.8906 244.9219,690.7031 Q244.5938,690.3281 243.9844,690.1094 Q243.375,689.8906 242.75,689.8906 Q241.9844,689.8906 241.3438,690.2188 Q240.7188,690.5469 240.2188,691.2969 Q239.7344,692.0469 239.7344,693.0781 L239.7344,694.1719 Q239.7344,695.4063 240.625,696.2344 Q241.5156,697.0469 243.1094,697.0469 Q244.0469,697.0469 244.7031,696.7969 Q245.0938,696.6406 245.5156,696.2031 Q245.7813,695.9375 245.9219,695.8594 Q246.0781,695.7813 246.2813,695.7813 Q246.6094,695.7813 246.8594,696.0469 Q247.125,696.2969 247.125,696.6406 Q247.125,696.9844 246.7813,697.3906 Q246.2813,697.9688 245.4844,698.2969 Q244.4063,698.75 243.1094,698.75 Q241.5938,698.75 240.3906,698.125 Q239.4063,697.625 238.7188,696.5625 Q238.0313,695.4844 238.0313,694.2031 L238.0313,693.0469 Q238.0313,691.7188 238.6406,690.5781 Q239.2656,689.4219 240.3594,688.8125 Q241.4531,688.1875 242.6875,688.1875 Q243.4219,688.1875 244.0625,688.3594 Q244.7188,688.5156 245.2656,688.875 Z " fill="#000000"/><text fill="#000000" font-family="sans-serif" font-size="14" lengthAdjust="spacing" textLength="109" x="256.5" y="698.7285">ParaCekmeIslemi</text></g><!--class TransferIslemi--><g id="elem_TransferIslemi"><rect codeLine="28" fill="#F1F1F1" height="32" id="TransferIslemi" rx="2.5" ry="2.5" style="stroke:#181818;stroke-width:0.5;" width="121" x="403.5" y="677"/><ellipse cx="418.5" cy="693" fill="#ADD1B2" rx="11" ry="11" style="stroke:#181818;stroke-width:1.0;"/><path d="M421.2656,688.875 Q421.4219,688.6563 421.6094,688.5469 Q421.7969,688.4375 422.0156,688.4375 Q422.3906,688.4375 422.625,688.7031 Q422.8594,688.9531 422.8594,689.5625 L422.8594,691.0156 Q422.8594,691.625 422.625,691.8906 Q422.3906,692.1563 422.0156,692.1563 Q421.6719,692.1563 421.4688,691.9531 Q421.2656,691.7656 421.1563,691.25 Q421.1094,690.8906 420.9219,690.7031 Q420.5938,690.3281 419.9844,690.1094 Q419.375,689.8906 418.75,689.8906 Q417.9844,689.8906 417.3438,690.2188 Q416.7188,690.5469 416.2188,691.2969 Q415.7344,692.0469 415.7344,693.0781 L415.7344,694.1719 Q415.7344,695.4063 416.625,696.2344 Q417.5156,697.0469 419.1094,697.0469 Q420.0469,697.0469 420.7031,696.7969 Q421.0938,696.6406 421.5156,696.2031 Q421.7813,695.9375 421.9219,695.8594 Q422.0781,695.7813 422.2813,695.7813 Q422.6094,695.7813 422.8594,696.0469 Q423.125,696.2969 423.125,696.6406 Q423.125,696.9844 422.7813,697.3906 Q422.2813,697.9688 421.4844,698.2969 Q420.4063,698.75 419.1094,698.75 Q417.5938,698.75 416.3906,698.125 Q415.4063,697.625 414.7188,696.5625 Q414.0313,695.4844 414.0313,694.2031 L414.0313,693.0469 Q414.0313,691.7188 414.6406,690.5781 Q415.2656,689.4219 416.3594,688.8125 Q417.4531,688.1875 418.6875,688.1875 Q419.4219,688.1875 420.0625,688.3594 Q420.7188,688.5156 421.2656,688.875 Z " fill="#000000"/><text fill="#000000" font-family="sans-serif" font-size="14" lengthAdjust="spacing" textLength="89" x="432.5" y="698.7285">TransferIslemi</text></g><!--class UcretIslemi--><g id="elem_UcretIslemi"><rect codeLine="29" fill="#F1F1F1" height="32" id="UcretIslemi" rx="2.5" ry="2.5" style="stroke:#181818;stroke-width:0.5;" width="100" x="560" y="677"/><ellipse cx="575" cy="693" fill="#ADD1B2" rx="11" ry="11" style="stroke:#181818;stroke-width:1.0;"/><path d="M577.7656,688.875 Q577.9219,688.6563 578.1094,688.5469 Q578.2969,688.4375 578.5156,688.4375 Q578.8906,688.4375 579.125,688.7031 Q579.3594,688.9531 579.3594,689.5625 L579.3594,691.0156 Q579.3594,691.625 579.125,691.8906 Q578.8906,692.1563 578.5156,692.1563 Q578.1719,692.1563 577.9688,691.9531 Q577.7656,691.7656 577.6563,691.25 Q577.6094,690.8906 577.4219,690.7031 Q577.0938,690.3281 576.4844,690.1094 Q575.875,689.8906 575.25,689.8906 Q574.4844,689.8906 573.8438,690.2188 Q573.2188,690.5469 572.7188,691.2969 Q572.2344,692.0469 572.2344,693.0781 L572.2344,694.1719 Q572.2344,695.4063 573.125,696.2344 Q574.0156,697.0469 575.6094,697.0469 Q576.5469,697.0469 577.2031,696.7969 Q577.5938,696.6406 578.0156,696.2031 Q578.2813,695.9375 578.4219,695.8594 Q578.5781,695.7813 578.7813,695.7813 Q579.1094,695.7813 579.3594,696.0469 Q579.625,696.2969 579.625,696.6406 Q579.625,696.9844 579.2813,697.3906 Q578.7813,697.9688 577.9844,698.2969 Q576.9063,698.75 575.6094,698.75 Q574.0938,698.75 572.8906,698.125 Q571.9063,697.625 571.2188,696.5625 Q570.5313,695.4844 570.5313,694.2031 L570.5313,693.0469 Q570.5313,691.7188 571.1406,690.5781 Q571.7656,689.4219 572.8594,688.8125 Q573.9531,688.1875 575.1875,688.1875 Q575.9219,688.1875 576.5625,688.3594 Q577.2188,688.5156 577.7656,688.875 Z " fill="#000000"/><text fill="#000000" font-family="sans-serif" font-size="14" lengthAdjust="spacing" textLength="68" x="589" y="698.7285">UcretIslemi</text></g><!--class AltinAlimIslemi--><g id="elem_AltinAlimIslemi"><rect codeLine="30" fill="#F1F1F1" height="32" id="AltinAlimIslemi" rx="2.5" ry="2.5" style="stroke:#181818;stroke-width:0.5;" width="120" x="695" y="677"/><ellipse cx="710" cy="693" fill="#ADD1B2" rx="11" ry="11" style="stroke:#181818;stroke-width:1.0;"/><path d="M712.7656,688.875 Q712.9219,688.6563 713.1094,688.5469 Q713.2969,688.4375 713.5156,688.4375 Q713.8906,688.4375 714.125,688.7031 Q714.3594,688.9531 714.3594,689.5625 L714.3594,691.0156 Q714.3594,691.625 714.125,691.8906 Q713.8906,692.1563 713.5156,692.1563 Q713.1719,692.1563 712.9688,691.9531 Q712.7656,691.7656 712.6563,691.25 Q712.6094,690.8906 712.4219,690.7031 Q712.0938,690.3281 711.4844,690.1094 Q710.875,689.8906 710.25,689.8906 Q709.4844,689.8906 708.8438,690.2188 Q708.2188,690.5469 707.7188,691.2969 Q707.2344,692.0469 707.2344,693.0781 L707.2344,694.1719 Q707.2344,695.4063 708.125,696.2344 Q709.0156,697.0469 710.6094,697.0469 Q711.5469,697.0469 712.2031,696.7969 Q712.5938,696.6406 713.0156,696.2031 Q713.2813,695.9375 713.4219,695.8594 Q713.5781,695.7813 713.7813,695.7813 Q714.1094,695.7813 714.3594,696.0469 Q714.625,696.2969 714.625,696.6406 Q714.625,696.9844 714.2813,697.3906 Q713.7813,697.9688 712.9844,698.2969 Q711.9063,698.75 710.6094,698.75 Q709.0938,698.75 707.8906,698.125 Q706.9063,697.625 706.2188,696.5625 Q705.5313,695.4844 705.5313,694.2031 L705.5313,693.0469 Q705.5313,691.7188 706.1406,690.5781 Q706.7656,689.4219 707.8594,688.8125 Q708.9531,688.1875 710.1875,688.1875 Q710.9219,688.1875 711.5625,688.3594 Q712.2188,688.5156 712.7656,688.875 Z " fill="#000000"/><text fill="#000000" font-family="sans-serif" font-size="14" lengthAdjust="spacing" textLength="88" x="724" y="698.7285">AltinAlimIslemi</text></g><!--class BilgiIslemi--><g id="elem_BilgiIslemi"><rect codeLine="31" fill="#F1F1F1" height="32" id="BilgiIslemi" rx="2.5" ry="2.5" style="stroke:#181818;stroke-width:0.5;" width="93" x="850.5" y="677"/><ellipse cx="865.5" cy="693" fill="#ADD1B2" rx="11" ry="11" style="stroke:#181818;stroke-width:1.0;"/><path d="M868.2656,688.875 Q868.4219,688.6563 868.6094,688.5469 Q868.7969,688.4375 869.0156,688.4375 Q869.3906,688.4375 869.625,688.7031 Q869.8594,688.9531 869.8594,689.5625 L869.8594,691.0156 Q869.8594,691.625 869.625,691.8906 Q869.3906,692.1563 869.0156,692.1563 Q868.6719,692.1563 868.4688,691.9531 Q868.2656,691.7656 868.1563,691.25 Q868.1094,690.8906 867.9219,690.7031 Q867.5938,690.3281 866.9844,690.1094 Q866.375,689.8906 865.75,689.8906 Q864.9844,689.8906 864.3438,690.2188 Q863.7188,690.5469 863.2188,691.2969 Q862.7344,692.0469 862.7344,693.0781 L862.7344,694.1719 Q862.7344,695.4063 863.625,696.2344 Q864.5156,697.0469 866.1094,697.0469 Q867.0469,697.0469 867.7031,696.7969 Q868.0938,696.6406 868.5156,696.2031 Q868.7813,695.9375 868.9219,695.8594 Q869.0781,695.7813 869.2813,695.7813 Q869.6094,695.7813 869.8594,696.0469 Q870.125,696.2969 870.125,696.6406 Q870.125,696.9844 869.7813,697.3906 Q869.2813,697.9688 868.4844,698.2969 Q867.4063,698.75 866.1094,698.75 Q864.5938,698.75 863.3906,698.125 Q862.4063,697.625 861.7188,696.5625 Q861.0313,695.4844 861.0313,694.2031 L861.0313,693.0469 Q861.0313,691.7188 861.6406,690.5781 Q862.2656,689.4219 863.3594,688.8125 Q864.4531,688.1875 865.6875,688.1875 Q866.4219,688.1875 867.0625,688.3594 Q867.7188,688.5156 868.2656,688.875 Z " fill="#000000"/><text fill="#000000" font-family="sans-serif" font-size="14" lengthAdjust="spacing" textLength="61" x="879.5" y="698.7285">BilgiIslemi</text></g><!--class IslemGecmisiIslemi--><g id="elem_IslemGecmisiIslemi"><rect codeLine="32" fill="#F1F1F1" height="32" id="IslemGecmisiIslemi" rx="2.5" ry="2.5" style="stroke:#181818;stroke-width:0.5;" width="149" x="978.5" y="677"/><ellipse cx="993.5" cy="693" fill="#ADD1B2" rx="11" ry="11" style="stroke:#181818;stroke-width:1.0;"/><path d="M996.2656,688.875 Q996.4219,688.6563 996.6094,688.5469 Q996.7969,688.4375 997.0156,688.4375 Q997.3906,688.4375 997.625,688.7031 Q997.8594,688.9531 997.8594,689.5625 L997.8594,691.0156 Q997.8594,691.625 997.625,691.8906 Q997.3906,692.1563 997.0156,692.1563 Q996.6719,692.1563 996.4688,691.9531 Q996.2656,691.7656 996.1563,691.25 Q996.1094,690.8906 995.9219,690.7031 Q995.5938,690.3281 994.9844,690.1094 Q994.375,689.8906 993.75,689.8906 Q992.9844,689.8906 992.3438,690.2188 Q991.7188,690.5469 991.2188,691.2969 Q990.7344,692.0469 990.7344,693.0781 L990.7344,694.1719 Q990.7344,695.4063 991.625,696.2344 Q992.5156,697.0469 994.1094,697.0469 Q995.0469,697.0469 995.7031,696.7969 Q996.0938,696.6406 996.5156,696.2031 Q996.7813,695.9375 996.9219,695.8594 Q997.0781,695.7813 997.2813,695.7813 Q997.6094,695.7813 997.8594,696.0469 Q998.125,696.2969 998.125,696.6406 Q998.125,696.9844 997.7813,697.3906 Q997.2813,697.9688 996.4844,698.2969 Q995.4063,698.75 994.1094,698.75 Q992.5938,698.75 991.3906,698.125 Q990.4063,697.625 989.7188,696.5625 Q989.0313,695.4844 989.0313,694.2031 L989.0313,693.0469 Q989.0313,691.7188 989.6406,690.5781 Q990.2656,689.4219 991.3594,688.8125 Q992.4531,688.1875 993.6875,688.1875 Q994.4219,688.1875 995.0625,688.3594 Q995.7188,688.5156 996.2656,688.875 Z " fill="#000000"/><text fill="#000000" font-family="sans-serif" font-size="14" lengthAdjust="spacing" textLength="117" x="1007.5" y="698.7285">IslemGecmisiIslemi</text></g><!--class Musteri--><g id="elem_Musteri"><rect codeLine="36" fill="#F1F1F1" height="32" id="Musteri" rx="2.5" ry="2.5" style="stroke:#181818;stroke-width:0.5;" width="78" x="954" y="338"/><ellipse cx="969" cy="354" fill="#ADD1B2" rx="11" ry="11" style="stroke:#181818;stroke-width:1.0;"/><path d="M971.7656,349.875 Q971.9219,349.6563 972.1094,349.5469 Q972.2969,349.4375 972.5156,349.4375 Q972.8906,349.4375 973.125,349.7031 Q973.3594,349.9531 973.3594,350.5625 L973.3594,352.0156 Q973.3594,352.625 973.125,352.8906 Q972.8906,353.1563 972.5156,353.1563 Q972.1719,353.1563 971.9688,352.9531 Q971.7656,352.7656 971.6563,352.25 Q971.6094,351.8906 971.4219,351.7031 Q971.0938,351.3281 970.4844,351.1094 Q969.875,350.8906 969.25,350.8906 Q968.4844,350.8906 967.8438,351.2188 Q967.2188,351.5469 966.7188,352.2969 Q966.2344,353.0469 966.2344,354.0781 L966.2344,355.1719 Q966.2344,356.4063 967.125,357.2344 Q968.0156,358.0469 969.6094,358.0469 Q970.5469,358.0469 971.2031,357.7969 Q971.5938,357.6406 972.0156,357.2031 Q972.2813,356.9375 972.4219,356.8594 Q972.5781,356.7813 972.7813,356.7813 Q973.1094,356.7813 973.3594,357.0469 Q973.625,357.2969 973.625,357.6406 Q973.625,357.9844 973.2813,358.3906 Q972.7813,358.9688 971.9844,359.2969 Q970.9063,359.75 969.6094,359.75 Q968.0938,359.75 966.8906,359.125 Q965.9063,358.625 965.2188,357.5625 Q964.5313,356.4844 964.5313,355.2031 L964.5313,354.0469 Q964.5313,352.7188 965.1406,351.5781 Q965.7656,350.4219 966.8594,349.8125 Q967.9531,349.1875 969.1875,349.1875 Q969.9219,349.1875 970.5625,349.3594 Q971.2188,349.5156 971.7656,349.875 Z " fill="#000000"/><text fill="#000000" font-family="sans-serif" font-size="14" lengthAdjust="spacing" textLength="46" x="983" y="359.7285">Musteri</text></g><!--class Banka--><g id="elem_Banka"><rect codeLine="40" fill="#F1F1F1" height="32" id="Banka" rx="2.5" ry="2.5" style="stroke:#181818;stroke-width:0.5;" width="72" x="781" y="204"/><ellipse cx="796" cy="220" fill="#ADD1B2" rx="11" ry="11" style="stroke:#181818;stroke-width:1.0;"/><path d="M798.7656,215.875 Q798.9219,215.6563 799.1094,215.5469 Q799.2969,215.4375 799.5156,215.4375 Q799.8906,215.4375 800.125,215.7031 Q800.3594,215.9531 800.3594,216.5625 L800.3594,218.0156 Q800.3594,218.625 800.125,218.8906 Q799.8906,219.1563 799.5156,219.1563 Q799.1719,219.1563 798.9688,218.9531 Q798.7656,218.7656 798.6563,218.25 Q798.6094,217.8906 798.4219,217.7031 Q798.0938,217.3281 797.4844,217.1094 Q796.875,216.8906 796.25,216.8906 Q795.4844,216.8906 794.8438,217.2188 Q794.2188,217.5469 793.7188,218.2969 Q793.2344,219.0469 793.2344,220.0781 L793.2344,221.1719 Q793.2344,222.4063 794.125,223.2344 Q795.0156,224.0469 796.6094,224.0469 Q797.5469,224.0469 798.2031,223.7969 Q798.5938,223.6406 799.0156,223.2031 Q799.2813,222.9375 799.4219,222.8594 Q799.5781,222.7813 799.7813,222.7813 Q800.1094,222.7813 800.3594,223.0469 Q800.625,223.2969 800.625,223.6406 Q800.625,223.9844 800.2813,224.3906 Q799.7813,224.9688 798.9844,225.2969 Q797.9063,225.75 796.6094,225.75 Q795.0938,225.75 793.8906,225.125 Q792.9063,224.625 792.2188,223.5625 Q791.5313,222.4844 791.5313,221.2031 L791.5313,220.0469 Q791.5313,218.7188 792.1406,217.5781 Q792.7656,216.4219 793.8594,215.8125 Q794.9531,215.1875 796.1875,215.1875 Q796.9219,215.1875 797.5625,215.3594 Q798.2188,215.5156 798.7656,215.875 Z " fill="#000000"/><text fill="#000000" font-family="sans-serif" font-size="14" lengthAdjust="spacing" textLength="40" x="810" y="225.7285">Banka</text></g><!--class LoginFrame--><g id="elem_LoginFrame"><rect codeLine="44" fill="#F1F1F1" height="32" id="LoginFrame" rx="2.5" ry="2.5" style="stroke:#181818;stroke-width:0.5;" width="108" x="585" y="87"/><ellipse cx="600" cy="103" fill="#ADD1B2" rx="11" ry="11" style="stroke:#181818;stroke-width:1.0;"/><path d="M602.7656,98.875 Q602.9219,98.6563 603.1094,98.5469 Q603.2969,98.4375 603.5156,98.4375 Q603.8906,98.4375 604.125,98.7031 Q604.3594,98.9531 604.3594,99.5625 L604.3594,101.0156 Q604.3594,101.625 604.125,101.8906 Q603.8906,102.1563 603.5156,102.1563 Q603.1719,102.1563 602.9688,101.9531 Q602.7656,101.7656 602.6563,101.25 Q602.6094,100.8906 602.4219,100.7031 Q602.0938,100.3281 601.4844,100.1094 Q600.875,99.8906 600.25,99.8906 Q599.4844,99.8906 598.8438,100.2188 Q598.2188,100.5469 597.7188,101.2969 Q597.2344,102.0469 597.2344,103.0781 L597.2344,104.1719 Q597.2344,105.4063 598.125,106.2344 Q599.0156,107.0469 600.6094,107.0469 Q601.5469,107.0469 602.2031,106.7969 Q602.5938,106.6406 603.0156,106.2031 Q603.2813,105.9375 603.4219,105.8594 Q603.5781,105.7813 603.7813,105.7813 Q604.1094,105.7813 604.3594,106.0469 Q604.625,106.2969 604.625,106.6406 Q604.625,106.9844 604.2813,107.3906 Q603.7813,107.9688 602.9844,108.2969 Q601.9063,108.75 600.6094,108.75 Q599.0938,108.75 597.8906,108.125 Q596.9063,107.625 596.2188,106.5625 Q595.5313,105.4844 595.5313,104.2031 L595.5313,103.0469 Q595.5313,101.7188 596.1406,100.5781 Q596.7656,99.4219 597.8594,98.8125 Q598.9531,98.1875 600.1875,98.1875 Q600.9219,98.1875 601.5625,98.3594 Q602.2188,98.5156 602.7656,98.875 Z " fill="#000000"/><text fill="#000000" font-family="sans-serif" font-size="14" lengthAdjust="spacing" textLength="76" x="614" y="108.7285">LoginFrame</text></g><!--class MainFrame--><g id="elem_MainFrame"><rect codeLine="45" fill="#F1F1F1" height="32" id="MainFrame" rx="2.5" ry="2.5" style="stroke:#181818;stroke-width:0.5;" width="103" x="728.5" y="87"/><ellipse cx="743.5" cy="103" fill="#ADD1B2" rx="11" ry="11" style="stroke:#181818;stroke-width:1.0;"/><path d="M746.2656,98.875 Q746.4219,98.6563 746.6094,98.5469 Q746.7969,98.4375 747.0156,98.4375 Q747.3906,98.4375 747.625,98.7031 Q747.8594,98.9531 747.8594,99.5625 L747.8594,101.0156 Q747.8594,101.625 747.625,101.8906 Q747.3906,102.1563 747.0156,102.1563 Q746.6719,102.1563 746.4688,101.9531 Q746.2656,101.7656 746.1563,101.25 Q746.1094,100.8906 745.9219,100.7031 Q745.5938,100.3281 744.9844,100.1094 Q744.375,99.8906 743.75,99.8906 Q742.9844,99.8906 742.3438,100.2188 Q741.7188,100.5469 741.2188,101.2969 Q740.7344,102.0469 740.7344,103.0781 L740.7344,104.1719 Q740.7344,105.4063 741.625,106.2344 Q742.5156,107.0469 744.1094,107.0469 Q745.0469,107.0469 745.7031,106.7969 Q746.0938,106.6406 746.5156,106.2031 Q746.7813,105.9375 746.9219,105.8594 Q747.0781,105.7813 747.2813,105.7813 Q747.6094,105.7813 747.8594,106.0469 Q748.125,106.2969 748.125,106.6406 Q748.125,106.9844 747.7813,107.3906 Q747.2813,107.9688 746.4844,108.2969 Q745.4063,108.75 744.1094,108.75 Q742.5938,108.75 741.3906,108.125 Q740.4063,107.625 739.7188,106.5625 Q739.0313,105.4844 739.0313,104.2031 L739.0313,103.0469 Q739.0313,101.7188 739.6406,100.5781 Q740.2656,99.4219 741.3594,98.8125 Q742.4531,98.1875 743.6875,98.1875 Q744.4219,98.1875 745.0625,98.3594 Q745.7188,98.5156 746.2656,98.875 Z " fill="#000000"/><text fill="#000000" font-family="sans-serif" font-size="14" lengthAdjust="spacing" textLength="71" x="757.5" y="108.7285">MainFrame</text></g><!--class MetinUtil--><g id="elem_MetinUtil"><rect codeLine="49" fill="#F1F1F1" height="32" id="MetinUtil" rx="2.5" ry="2.5" style="stroke:#181818;stroke-width:0.5;" width="85" x="666.5" y="338"/><ellipse cx="681.5" cy="354" fill="#ADD1B2" rx="11" ry="11" style="stroke:#181818;stroke-width:1.0;"/><path d="M684.2656,349.875 Q684.4219,349.6563 684.6094,349.5469 Q684.7969,349.4375 685.0156,349.4375 Q685.3906,349.4375 685.625,349.7031 Q685.8594,349.9531 685.8594,350.5625 L685.8594,352.0156 Q685.8594,352.625 685.625,352.8906 Q685.3906,353.1563 685.0156,353.1563 Q684.6719,353.1563 684.4688,352.9531 Q684.2656,352.7656 684.1563,352.25 Q684.1094,351.8906 683.9219,351.7031 Q683.5938,351.3281 682.9844,351.1094 Q682.375,350.8906 681.75,350.8906 Q680.9844,350.8906 680.3438,351.2188 Q679.7188,351.5469 679.2188,352.2969 Q678.7344,353.0469 678.7344,354.0781 L678.7344,355.1719 Q678.7344,356.4063 679.625,357.2344 Q680.5156,358.0469 682.1094,358.0469 Q683.0469,358.0469 683.7031,357.7969 Q684.0938,357.6406 684.5156,357.2031 Q684.7813,356.9375 684.9219,356.8594 Q685.0781,356.7813 685.2813,356.7813 Q685.6094,356.7813 685.8594,357.0469 Q686.125,357.2969 686.125,357.6406 Q686.125,357.9844 685.7813,358.3906 Q685.2813,358.9688 684.4844,359.2969 Q683.4063,359.75 682.1094,359.75 Q680.5938,359.75 679.3906,359.125 Q678.4063,358.625 677.7188,357.5625 Q677.0313,356.4844 677.0313,355.2031 L677.0313,354.0469 Q677.0313,352.7188 677.6406,351.5781 Q678.2656,350.4219 679.3594,349.8125 Q680.4531,349.1875 681.6875,349.1875 Q682.4219,349.1875 683.0625,349.3594 Q683.7188,349.5156 684.2656,349.875 Z " fill="#000000"/><text fill="#000000" font-family="sans-serif" font-size="14" lengthAdjust="spacing" textLength="53" x="695.5" y="359.7285">MetinUtil</text></g><!--class Sifreleme--><g id="elem_Sifreleme"><rect codeLine="50" fill="#F1F1F1" height="32" id="Sifreleme" rx="2.5" ry="2.5" style="stroke:#181818;stroke-width:0.5;" width="91" x="540.5" y="338"/><ellipse cx="555.5" cy="354" fill="#ADD1B2" rx="11" ry="11" style="stroke:#181818;stroke-width:1.0;"/><path d="M558.2656,349.875 Q558.4219,349.6563 558.6094,349.5469 Q558.7969,349.4375 559.0156,349.4375 Q559.3906,349.4375 559.625,349.7031 Q559.8594,349.9531 559.8594,350.5625 L559.8594,352.0156 Q559.8594,352.625 559.625,352.8906 Q559.3906,353.1563 559.0156,353.1563 Q558.6719,353.1563 558.4688,352.9531 Q558.2656,352.7656 558.1563,352.25 Q558.1094,351.8906 557.9219,351.7031 Q557.5938,351.3281 556.9844,351.1094 Q556.375,350.8906 555.75,350.8906 Q554.9844,350.8906 554.3438,351.2188 Q553.7188,351.5469 553.2188,352.2969 Q552.7344,353.0469 552.7344,354.0781 L552.7344,355.1719 Q552.7344,356.4063 553.625,357.2344 Q554.5156,358.0469 556.1094,358.0469 Q557.0469,358.0469 557.7031,357.7969 Q558.0938,357.6406 558.5156,357.2031 Q558.7813,356.9375 558.9219,356.8594 Q559.0781,356.7813 559.2813,356.7813 Q559.6094,356.7813 559.8594,357.0469 Q560.125,357.2969 560.125,357.6406 Q560.125,357.9844 559.7813,358.3906 Q559.2813,358.9688 558.4844,359.2969 Q557.4063,359.75 556.1094,359.75 Q554.5938,359.75 553.3906,359.125 Q552.4063,358.625 551.7188,357.5625 Q551.0313,356.4844 551.0313,355.2031 L551.0313,354.0469 Q551.0313,352.7188 551.6406,351.5781 Q552.2656,350.4219 553.3594,349.8125 Q554.4531,349.1875 555.6875,349.1875 Q556.4219,349.1875 557.0625,349.3594 Q557.7188,349.5156 558.2656,349.875 Z " fill="#000000"/><text fill="#000000" font-family="sans-serif" font-size="14" lengthAdjust="spacing" textLength="59" x="569.5" y="359.7285">Sifreleme</text></g><!--class BankaTest--><g id="elem_BankaTest"><rect codeLine="54" fill="#F1F1F1" height="32" id="BankaTest" rx="2.5" ry="2.5" style="stroke:#181818;stroke-width:0.5;" width="100" x="888" y="87"/><ellipse cx="903" cy="103" fill="#ADD1B2" rx="11" ry="11" style="stroke:#181818;stroke-width:1.0;"/><path d="M905.7656,98.875 Q905.9219,98.6563 906.1094,98.5469 Q906.2969,98.4375 906.5156,98.4375 Q906.8906,98.4375 907.125,98.7031 Q907.3594,98.9531 907.3594,99.5625 L907.3594,101.0156 Q907.3594,101.625 907.125,101.8906 Q906.8906,102.1563 906.5156,102.1563 Q906.1719,102.1563 905.9688,101.9531 Q905.7656,101.7656 905.6563,101.25 Q905.6094,100.8906 905.4219,100.7031 Q905.0938,100.3281 904.4844,100.1094 Q903.875,99.8906 903.25,99.8906 Q902.4844,99.8906 901.8438,100.2188 Q901.2188,100.5469 900.7188,101.2969 Q900.2344,102.0469 900.2344,103.0781 L900.2344,104.1719 Q900.2344,105.4063 901.125,106.2344 Q902.0156,107.0469 903.6094,107.0469 Q904.5469,107.0469 905.2031,106.7969 Q905.5938,106.6406 906.0156,106.2031 Q906.2813,105.9375 906.4219,105.8594 Q906.5781,105.7813 906.7813,105.7813 Q907.1094,105.7813 907.3594,106.0469 Q907.625,106.2969 907.625,106.6406 Q907.625,106.9844 907.2813,107.3906 Q906.7813,107.9688 905.9844,108.2969 Q904.9063,108.75 903.6094,108.75 Q902.0938,108.75 900.8906,108.125 Q899.9063,107.625 899.2188,106.5625 Q898.5313,105.4844 898.5313,104.2031 L898.5313,103.0469 Q898.5313,101.7188 899.1406,100.5781 Q899.7656,99.4219 900.8594,98.8125 Q901.9531,98.1875 903.1875,98.1875 Q903.9219,98.1875 904.5625,98.3594 Q905.2188,98.5156 905.7656,98.875 Z " fill="#000000"/><text fill="#000000" font-family="sans-serif" font-size="14" lengthAdjust="spacing" textLength="68" x="917" y="108.7285">BankaTest</text></g><!--reverse link IHesapIslemleri to Hesap--><g id="link_IHesapIslemleri_Hesap"><path codeLine="62" d="M1402,254.14 C1402,279.47 1402,312.15 1402,337.63 " fill="none" id="IHesapIslemleri-backto-Hesap" style="stroke:#181818;stroke-width:1.0;stroke-dasharray:7.0,7.0;"/><polygon fill="none" points="1402,236.14,1396,254.14,1408,254.14,1402,236.14" style="stroke:#181818;stroke-width:1.0;"/></g><!--reverse link Hesap to VadesizHesap--><g id="link_Hesap_VadesizHesap"><path codeLine="63" d="M1370.2139,381.7253 C1340.0939,407.0553 1293.59,446.15 1263.28,471.63 " fill="none" id="Hesap-backto-VadesizHesap" style="stroke:#181818;stroke-width:1.0;"/><polygon fill="none" points="1383.99,370.14,1366.3521,377.1332,1374.0757,386.3173,1383.99,370.14" style="stroke:#181818;stroke-width:1.0;"/></g><!--reverse link Hesap to TasarrufHesabi--><g id="link_Hesap_TasarrufHesabi"><path codeLine="64" d="M1402.7521,388.1353 C1403.3321,413.4653 1404.07,446.15 1404.65,471.63 " fill="none" id="Hesap-backto-TasarrufHesabi" style="stroke:#181818;stroke-width:1.0;"/><polygon fill="none" points="1402.34,370.14,1396.7536,388.2726,1408.7505,387.9979,1402.34,370.14" style="stroke:#181818;stroke-width:1.0;"/></g><!--reverse link TransferEdilebilir to VadesizHesap--><g id="link_TransferEdilebilir_VadesizHesap"><path codeLine="65" d="M1256.898,388.2218 C1256.038,401.4018 1255.79,403 1254,420 C1252.12,437.86 1249.27,458.3 1247.28,471.86 " fill="none" id="TransferEdilebilir-backto-VadesizHesap" style="stroke:#181818;stroke-width:1.0;stroke-dasharray:7.0,7.0;"/><polygon fill="none" points="1258.07,370.26,1250.9107,387.8311,1262.8853,388.6125,1258.07,370.26" style="stroke:#181818;stroke-width:1.0;"/></g><!--reverse link Musteri to VadesizHesap--><g id="link_Musteri_VadesizHesap"><path codeLine="68" d="M1030.1881,375.9729 C1055.5081,389.9929 1084.37,405.05 1120,420 C1130.37,424.35 1133.76,423.36 1144,428 C1171.93,440.65 1202.05,458.9 1222.06,471.75 " fill="none" id="Musteri-backto-VadesizHesap" style="stroke:#181818;stroke-width:1.0;"/><polygon fill="#181818" points="1019.69,370.16,1023.0014,376.5658,1030.1881,375.9729,1026.8767,369.5671,1019.69,370.16" style="stroke:#181818;stroke-width:1.0;"/><text fill="#000000" font-family="sans-serif" font-size="13" lengthAdjust="spacing" textLength="43" x="1121" y="416.4951">vadesiz</text></g><!--reverse link Musteri to TasarrufHesabi--><g id="link_Musteri_TasarrufHesabi"><path codeLine="69" d="M1043.9707,366.4089 C1079.4307,374.3389 1121.35,383.68 1168,394 C1236.86,409.23 1258.6,399.25 1323,428 C1347.82,439.08 1372.65,458.37 1388.37,471.87 " fill="none" id="Musteri-backto-TasarrufHesabi" style="stroke:#181818;stroke-width:1.0;"/><polygon fill="#181818" points="1032.26,363.79,1037.2424,369.003,1043.9707,366.4089,1038.9883,361.1959,1032.26,363.79" style="stroke:#181818;stroke-width:1.0;"/><text fill="#000000" font-family="sans-serif" font-size="13" lengthAdjust="spacing" textLength="43" x="1302" y="416.4951">tasarruf</text></g><!--reverse link Musteri to IslemGecmisi--><g id="link_Musteri_IslemGecmisi"><path codeLine="70" d="M981.4841,380.9536 C974.8741,395.1136 968.59,405.37 954,420 C931.75,442.31 900.64,460.26 877.01,471.94 " fill="none" id="Musteri-backto-IslemGecmisi" style="stroke:#181818;stroke-width:1.0;"/><polygon fill="#181818" points="986.56,370.08,980.3975,373.8248,981.4841,380.9536,987.6466,377.2088,986.56,370.08" style="stroke:#181818;stroke-width:1.0;"/><text fill="#000000" font-family="sans-serif" font-size="13" lengthAdjust="spacing" textLength="88" x="969" y="416.4951">vadesizGecmis</text></g><!--reverse link Musteri to IslemGecmisi--><g id="link_Musteri_IslemGecmisi"><path codeLine="71" d="M955.8729,375.7215 C940.2029,384.0115 930.31,388.15 911,394 C899.18,397.58 864.77,393.3 856,402 C837.67,420.2 838.18,452.62 840.43,471.73 " fill="none" id="Musteri-backto-IslemGecmisi-1" style="stroke:#181818;stroke-width:1.0;"/><polygon fill="#181818" points="966.48,370.11,959.3059,369.3801,955.8729,375.7215,963.047,376.4515,966.48,370.11" style="stroke:#181818;stroke-width:1.0;"/><text fill="#000000" font-family="sans-serif" font-size="13" lengthAdjust="spacing" textLength="88" x="857" y="416.4951">tasarrufGecmis</text></g><!--reverse link Banka to Musteri--><g id="link_Banka_Musteri"><path codeLine="74" d="M846.7893,243.3409 C880.6493,268.7409 938.89,312.42 972.78,337.83 " fill="none" id="Banka-backto-Musteri" style="stroke:#181818;stroke-width:1.0;"/><polygon fill="none" points="837.19,236.14,839.5894,242.9402,846.7893,243.3409,844.39,236.5407,837.19,236.14" style="stroke:#181818;stroke-width:1.0;"/><text fill="#000000" font-family="sans-serif" font-size="13" lengthAdjust="spacing" textLength="57" x="900" y="282.4951">musteriler</text><text fill="#000000" font-family="sans-serif" font-size="13" lengthAdjust="spacing" textLength="20" x="942.3919" y="327.0771">0..*</text></g><!--reverse link Banka to IslemGecmisi--><g id="link_Banka_IslemGecmisi"><path codeLine="75" d="M819.6385,248.003 C824.2085,294.713 836.92,424.84 841.51,471.77 " fill="none" id="Banka-backto-IslemGecmisi" style="stroke:#181818;stroke-width:1.0;"/><polygon fill="#181818" points="818.47,236.06,815.0732,242.421,819.6385,248.003,823.0352,241.642,818.47,236.06" style="stroke:#181818;stroke-width:1.0;"/><text fill="#000000" font-family="sans-serif" font-size="13" lengthAdjust="spacing" textLength="79" x="834" y="359.4951">islemGecmisi</text></g><!--reverse link TasarrufHesabi to AltinCuzdani--><g id="link_TasarrufHesabi_AltinCuzdani"><path codeLine="78" d="M1403.7448,516.0071 C1402.7948,536.5171 1401.66,561.13 1400.71,581.76 " fill="none" id="TasarrufHesabi-backto-AltinCuzdani" style="stroke:#181818;stroke-width:1.0;"/><polygon fill="#181818" points="1404.3,504.02,1400.0267,509.8285,1403.7448,516.0071,1408.0181,510.1987,1404.3,504.02" style="stroke:#181818;stroke-width:1.0;"/><text fill="#000000" font-family="sans-serif" font-size="13" lengthAdjust="spacing" textLength="68" x="1403" y="548.4951">altinCuzdan</text></g><!--reverse link Islem to ParaYatirmaIslemi--><g id="link_Islem_ParaYatirmaIslemi"><path codeLine="81" d="M626.4857,607.4341 C538.7957,622.0741 314.93,659.45 192.76,679.85 " fill="none" id="Islem-backto-ParaYatirmaIslemi" style="stroke:#181818;stroke-width:1.0;stroke-dasharray:7.0,7.0;"/><polygon fill="none" points="644.24,604.47,625.4977,601.516,627.4738,613.3522,644.24,604.47" style="stroke:#181818;stroke-width:1.0;"/></g><!--reverse link Islem to ParaCekmeIslemi--><g id="link_Islem_ParaCekmeIslemi"><path codeLine="82" d="M626.8786,611.2996 C563.5886,626.8296 440.75,656.97 359.47,676.92 " fill="none" id="Islem-backto-ParaCekmeIslemi" style="stroke:#181818;stroke-width:1.0;stroke-dasharray:7.0,7.0;"/><polygon fill="none" points="644.36,607.01,625.4487,605.4724,628.3084,617.1267,644.36,607.01" style="stroke:#181818;stroke-width:1.0;"/></g><!--reverse link Islem to TransferIslemi--><g id="link_Islem_TransferIslemi"><path codeLine="83" d="M627.6931,620.5309 C588.2431,637.7509 538.85,659.32 498.62,676.88 " fill="none" id="Islem-backto-TransferIslemi" style="stroke:#181818;stroke-width:1.0;stroke-dasharray:7.0,7.0;"/><polygon fill="none" points="644.19,613.33,625.2928,615.032,630.0934,626.0299,644.19,613.33" style="stroke:#181818;stroke-width:1.0;"/></g><!--reverse link Islem to UcretIslemi--><g id="link_Islem_UcretIslemi"><path codeLine="84" d="M655.4156,628.9627 C642.9256,646.2927 633.26,659.71 620.86,676.93 " fill="none" id="Islem-backto-UcretIslemi" style="stroke:#181818;stroke-width:1.0;stroke-dasharray:7.0,7.0;"/><polygon fill="none" points="665.94,614.36,650.5481,625.4545,660.2832,632.4708,665.94,614.36" style="stroke:#181818;stroke-width:1.0;"/></g><!--reverse link Islem to AltinAlimIslemi--><g id="link_Islem_AltinAlimIslemi"><path codeLine="85" d="M701.4494,628.1494 C715.9894,645.4794 727.92,659.71 742.36,676.93 " fill="none" id="Islem-backto-AltinAlimIslemi" style="stroke:#181818;stroke-width:1.0;stroke-dasharray:7.0,7.0;"/><polygon fill="none" points="689.88,614.36,696.853,632.0059,706.0459,624.2929,689.88,614.36" style="stroke:#181818;stroke-width:1.0;"/></g><!--reverse link Islem to BilgiIslemi--><g id="link_Islem_BilgiIslemi"><path codeLine="86" d="M726.5188,619.9302 C767.1488,637.1102 819.4,659.2 861.28,676.9 " fill="none" id="Islem-backto-BilgiIslemi" style="stroke:#181818;stroke-width:1.0;stroke-dasharray:7.0,7.0;"/><polygon fill="none" points="709.94,612.92,724.1821,625.4565,728.8555,614.4039,709.94,612.92" style="stroke:#181818;stroke-width:1.0;"/></g><!--reverse link Islem to IslemGecmisiIslemi--><g id="link_Islem_IslemGecmisiIslemi"><path codeLine="87" d="M727.1833,611.4125 C790.1633,626.9925 911.67,657.04 992.15,676.95 " fill="none" id="Islem-backto-IslemGecmisiIslemi" style="stroke:#181818;stroke-width:1.0;stroke-dasharray:7.0,7.0;"/><polygon fill="none" points="709.71,607.09,725.7424,617.237,728.6241,605.5881,709.71,607.09" style="stroke:#181818;stroke-width:1.0;"/></g><!--reverse link IslemGecmisi to Islem--><g id="link_IslemGecmisi_Islem"><path codeLine="89" d="M809.8602,510.5622 C778.2302,531.1322 731.82,561.34 700.15,581.94 " fill="none" id="IslemGecmisi-backto-Islem" style="stroke:#181818;stroke-width:1.0;"/><polygon fill="none" points="819.92,504.02,812.7094,503.9378,809.8602,510.5622,817.0708,510.6444,819.92,504.02" style="stroke:#181818;stroke-width:1.0;"/><text fill="#000000" font-family="sans-serif" font-size="13" lengthAdjust="spacing" textLength="45" x="770" y="548.4951">islemler</text><text fill="#000000" font-family="sans-serif" font-size="13" lengthAdjust="spacing" textLength="20" x="684.6703" y="571.2249">0..*</text></g><!--link LoginFrame to Banka--><g id="link_LoginFrame_Banka"><path codeLine="92" d="M662.27,119.03 C696.38,141.07 754.5705,178.6637 788.6805,200.7037 " fill="none" id="LoginFrame-to-Banka" style="stroke:#181818;stroke-width:1.0;stroke-dasharray:7.0,7.0;"/><polygon fill="#181818" points="793.72,203.96,788.3316,195.7159,789.5204,201.2464,783.9899,202.4353,793.72,203.96" style="stroke:#181818;stroke-width:1.0;"/></g><!--link MainFrame to Banka--><g id="link_MainFrame_Banka"><path codeLine="93" d="M784.84,119.03 C791.93,141.07 803.2326,176.2083 810.3226,198.2483 " fill="none" id="MainFrame-to-Banka" style="stroke:#181818;stroke-width:1.0;stroke-dasharray:7.0,7.0;"/><polygon fill="#181818" points="812.16,203.96,813.2117,194.1675,810.6288,199.2002,805.5961,196.6173,812.16,203.96" style="stroke:#181818;stroke-width:1.0;"/></g><!--link LoginFrame to Sifreleme--><g id="link_LoginFrame_Sifreleme"><path codeLine="94" d="M635.76,119.2 C626.28,163.76 599.8689,287.8214 590.4389,332.1314 " fill="none" id="LoginFrame-to-Sifreleme" style="stroke:#181818;stroke-width:1.0;stroke-dasharray:7.0,7.0;"/><polygon fill="#181818" points="589.19,338,594.9758,330.0298,590.2308,333.1095,587.151,328.3645,589.19,338" style="stroke:#181818;stroke-width:1.0;"/></g><!--link Banka to MetinUtil--><g id="link_Banka_MetinUtil"><path codeLine="95" d="M804.61,236.14 C783.89,261.47 746.2186,307.5056 725.3786,332.9856 " fill="none" id="Banka-to-MetinUtil" style="stroke:#181818;stroke-width:1.0;stroke-dasharray:7.0,7.0;"/><polygon fill="#181818" points="721.58,337.63,730.3742,333.1958,724.7455,333.7597,724.1817,328.131,721.58,337.63" style="stroke:#181818;stroke-width:1.0;"/></g><!--link BankaTest to Banka--><g id="link_BankaTest_Banka"><path codeLine="96" d="M922.18,119.03 C898.99,141.07 860.3591,177.7866 837.1691,199.8266 " fill="none" id="BankaTest-to-Banka" style="stroke:#181818;stroke-width:1.0;stroke-dasharray:7.0,7.0;"/><polygon fill="#181818" points="832.82,203.96,842.0993,200.6593,836.4443,200.5155,836.588,194.8604,832.82,203.96" style="stroke:#181818;stroke-width:1.0;"/></g><!--SRC=[XLJDRXen4BxlKuouf8qKcdFKL28fJL3pWmAfrEFixW0Zx0NP9XLf-nezHU8PkFJK6_IzQgyDU1UKhX2x_kORp-UPyUWn5rDKA24Jg7NB6CNfp50dcnGzVYOuJVIMCiLiZ4FgcRaWK9GPB8Q28e8UOJxvniKG1YWq9SaHd9-VGw_riGrNgryFgvUxrSkjmv8HvmIIp6YIQxyOC8dDDycfcLkpJ4dfiCsXnrh2qsrTVcvTjNklS9EW7nef5cDiZaZZj07V4m1CjL6O6Py5k7OM2_lL5yn9ytCLxAD6fMO3XwQyXLl2S74vUywnS20NXjG0Cu9EwTxHWgGWLRNr5HPwGAgTiw2K1QlavvvQTgvURRIh0xV1ozKLPPBrJb7NLkOh6bOIItlLSabZIJLy8wS6FsQAJ0qhZziIB6lu1OiXrx1ONJ3jdr9ESXB-bDxhTgQDozS-LPDwuenYyeKp7A3EE6RTJ8PSVBBzIhiek44EE1kkAY9xvaSBRf4U3nJP0ntoDgJDdiI-1HttlttzqBvfzJltTxthJlVLrZw2avCJkB_lGZPHv1P9hUFW_OzcCtHs-My1wr9fxWYlzVT-Y_hzAkv1HIWPQ1pnLF1wmQMU3NnSYmfdyEIN5KfLW2MP05HOSLFjDlB0QyJDPe4Pb9V5WVdgTs5hBBriZqsijN7QR1utjiSx0-c_R7O3wq0WZkza2BCv6g0mwsK1sUgF6nZh9RonSSTaWCQ2YfpVbWfgcN11uZ5ZW-1kkObHoe0HpqcX-hjmOigcAE6oTFk3eMQCPqDages7o19FY0Yk3ud85C-923umAf9ANgDoUBUGQ5UAa8373hm3TtVjorr2I76zM2-bM2_jRonGkNnBBbYYy8dU3GPeDZ-4QR8T3H5M8-xklsy3X-scnFR6Hnly0m00]--></g></svg>